<?xml version="1.0" encoding="utf-8"?>
<svg xmlns="http://www.w3.org/2000/svg" viewBox="0 0 50 50" width="500" height="500">
  <path d="M45.552734 0.9453125C44.526908 0.9453125 43.501564 1.3343731 42.724609 2.1113281L37.833984 7L4 7C2.897 7 2 7.897 2 9L2 34C2 35.103 2.897 36 4 36L19 36L19 40L17 40C14.802666 40 13 41.802666 13 44 A 1.0001 1.0001 0 0 0 14 45L36 45 A 1.0001 1.0001 0 0 0 37 44C37 41.802666 35.197334 40 33 40L31 40L31 36L46 36C47.103 36 48 35.103 48 34L48 9C48 8.747799 47.945428 8.5107783 47.859375 8.2890625L48.380859 7.7675781C49.934769 6.2136681 49.934769 3.6652382 48.380859 2.1113281C47.603904 1.3343731 46.57856 0.9453125 45.552734 0.9453125 z M 45.552734 2.9316406C46.062408 2.9316406 46.571752 3.1303457 46.966797 3.5253906C47.756887 4.3154806 47.756887 5.5634257 46.966797 6.3535156L36.359375 16.960938L33.53125 14.132812L44.138672 3.5253906C44.533717 3.1303457 45.04306 2.9316406 45.552734 2.9316406 z M 4 9L35.833984 9L27.050781 17.78125C26.073933 17.985991 25.269319 18.380441 24.648438 18.925781C23.823227 19.65059 23.354658 20.590394 23.0625 21.533203C22.571843 23.116579 22.474266 24.764867 22.212891 26L8 26 A 1.0001 1.0001 0 1 0 8 28L24 28 A 1.0001 1.0001 0 0 0 24.246094 27.970703C26.630667 27.907673 28.427984 27.653738 29.818359 26.935547C31.163812 26.240561 32.025299 25.078542 32.554688 23.59375L32.824219 23.324219L46 10.148438L46.001953 34L4 34L4 32L46 32L46 30L4 30L4 9 z M 32.117188 15.546875L34.945312 18.375L32.117188 21.203125L29.289062 18.375L32.117188 15.546875 z M 27.849609 19.763672L30.71875 22.632812C30.335468 23.898528 29.85237 24.666464 28.900391 25.158203C27.992481 25.627178 26.37954 25.852035 24.222656 25.929688C24.473003 24.594783 24.642403 23.192699 24.972656 22.126953C25.197998 21.399762 25.504585 20.835425 25.96875 20.427734C26.35845 20.085448 27.027577 19.88768 27.849609 19.763672 z M 21 36L29 36L29 40L21 40L21 36 z M 17 42L19 42L31 42L33 42C33.722954 42 34.238885 42.435884 34.589844 43L15.410156 43C15.761115 42.435884 16.277046 42 17 42 z" fill="#5B5B5B" />
</svg>