<?xml version="1.0" encoding="utf-8"?>
<svg xmlns="http://www.w3.org/2000/svg" viewBox="0 0 100 100" width="400" height="400">
  <path d="M26 18C21.589 18 18 21.589 18 26L18 74C18 78.411 21.589 82 26 82L74 82C78.411 82 82 78.411 82 74L82 26C82 21.589 78.411 18 74 18L26 18 z M 26 20L74 20C77.309 20 80 22.691 80 26L80 29L72.5 29C72.224 29 72 29.224 72 29.5C72 29.776 72.224 30 72.5 30L80 30L80 73L31.5 73C31.224 73 31 73.224 31 73.5C31 73.776 31.224 74 31.5 74L80 74C80 77.309 77.309 80 74 80L26 80C22.691 80 20 77.309 20 74L28.5 74C28.777 74 29 73.776 29 73.5C29 73.224 28.776 73 28.5 73L20 73L20 30L58.5 30C58.777 30 59 29.776 59 29.5C59 29.224 58.776 29 58.5 29L20 29L20 26C20 22.691 22.691 20 26 20 z M 27.5 22C26.121 22 25 23.121 25 24.5C25 25.879 26.121 27 27.5 27C28.879 27 30 25.879 30 24.5C30 23.121 28.879 22 27.5 22 z M 34.5 22C33.121 22 32 23.121 32 24.5C32 25.879 33.121 27 34.5 27C35.879 27 37 25.879 37 24.5C37 23.121 35.879 22 34.5 22 z M 41.5 22C40.121 22 39 23.121 39 24.5C39 25.879 40.121 27 41.5 27C42.879 27 44 25.879 44 24.5C44 23.121 42.879 22 41.5 22 z M 27.5 23C28.327 23 29 23.673 29 24.5C29 25.327 28.327 26 27.5 26C26.673 26 26 25.327 26 24.5C26 23.673 26.673 23 27.5 23 z M 34.5 23C35.327 23 36 23.673 36 24.5C36 25.327 35.327 26 34.5 26C33.673 26 33 25.327 33 24.5C33 23.673 33.673 23 34.5 23 z M 41.5 23C42.327 23 43 23.673 43 24.5C43 25.327 42.327 26 41.5 26C40.673 26 40 25.327 40 24.5C40 23.673 40.673 23 41.5 23 z M 61.5 29C61.224 29 61 29.224 61 29.5C61 29.776 61.224 30 61.5 30L67.5 30C67.777 30 68 29.776 68 29.5C68 29.224 67.776 29 67.5 29L61.5 29 z M 42.5 34C42.224 34 42 34.224 42 34.5L42 69.5C42 69.776 42.224 70 42.5 70C42.777 70 43 69.776 43 69.5L43 34.5C43 34.224 42.776 34 42.5 34 z M 47.5 35C47.224 35 47 35.224 47 35.5L47 47.5C47 47.776 47.224 48 47.5 48C47.776 48 48 47.776 48 47.5L48 36L75 36L75 49L55.5 49C55.224 49 55 49.224 55 49.5C55 49.776 55.224 50 55.5 50L75.5 50C75.777 50 76 49.776 76 49.5L76 35.5C76 35.224 75.776 35 75.5 35L47.5 35 z M 24.5 37C24.224 37 24 37.224 24 37.5C24 37.776 24.224 38 24.5 38L38.5 38C38.777 38 39 37.776 39 37.5C39 37.224 38.776 37 38.5 37L24.5 37 z M 24.5 44C24.224 44 24 44.224 24 44.5C24 44.776 24.224 45 24.5 45L38.5 45C38.777 45 39 44.776 39 44.5C39 44.224 38.776 44 38.5 44L24.5 44 z M 50.5 49C50.224 49 50 49.224 50 49.5C50 49.776 50.224 50 50.5 50L53.5 50C53.777 50 54 49.776 54 49.5C54 49.224 53.776 49 53.5 49L50.5 49 z M 24.5 51C24.224 51 24 51.224 24 51.5C24 51.776 24.224 52 24.5 52L38.5 52C38.777 52 39 51.776 39 51.5C39 51.224 38.776 51 38.5 51L24.5 51 z M 61.5 53C61.224 53 61 53.224 61 53.5L61 67.5C61 67.776 61.224 68 61.5 68L75.5 68C75.777 68 76 67.776 76 67.5L76 53.5C76 53.224 75.776 53 75.5 53L61.5 53 z M 62 54L75 54L75 67L62 67L62 54 z M 24.5 58C24.224 58 24 58.224 24 58.5C24 58.776 24.224 59 24.5 59L38.5 59C38.777 59 39 58.776 39 58.5C39 58.224 38.776 58 38.5 58L24.5 58 z M 47.5 58C47.224 58 47 58.224 47 58.5C47 58.776 47.224 59 47.5 59L58.5 59C58.777 59 59 58.776 59 58.5C59 58.224 58.776 58 58.5 58L47.5 58 z M 24.5 65C24.224 65 24 65.224 24 65.5C24 65.776 24.224 66 24.5 66L38.5 66C38.777 66 39 65.776 39 65.5C39 65.224 38.776 65 38.5 65L24.5 65 z M 47.5 65C47.224 65 47 65.224 47 65.5C47 65.776 47.224 66 47.5 66L58.5 66C58.777 66 59 65.776 59 65.5C59 65.224 58.776 65 58.5 65L47.5 65 z" fill="#5B5B5B" />
</svg>